<?xml version="1.0" standalone="no"?>
<!DOCTYPE svg PUBLIC "-//W3C//DTD SVG 20010904//EN"
 "http://www.w3.org/TR/2001/REC-SVG-20010904/DTD/svg10.dtd">
<svg version="1.0" xmlns="http://www.w3.org/2000/svg"
 width="1000.000000pt" height="1000.000000pt" viewBox="0 0 1000.000000 1000.000000"
 preserveAspectRatio="xMidYMid meet">
<metadata>
Created by potrace 1.14, written by Peter Selinger 2001-2017
</metadata>
<g transform="translate(0.000000,1000.000000) scale(0.100000,-0.100000)"
fill="#000000" stroke="none">
<path d="M3850 6807 c-574 -331 -1043 -606 -1043 -612 0 -5 128 -84 284 -174
213 -123 287 -161 299 -154 114 70 1152 664 1156 661 2 -2 -57 -172 -132 -377
-75 -205 -133 -375 -130 -378 3 -3 235 22 515 56 281 35 515 60 520 57 5 -4
12 -2 15 3 5 7 44 13 191 27 22 2 51 6 65 9 24 5 24 5 6 -10 -10 -8 -23 -12
-27 -9 -5 3 -9 1 -9 -4 0 -12 -210 -128 -224 -124 -6 2 -8 0 -4 -4 4 -3 -192
-121 -435 -261 -243 -141 -446 -259 -450 -263 -7 -6 559 -340 578 -340 4 0 79
41 166 91 87 49 161 89 165 89 4 -1 10 2 13 7 6 10 255 156 282 165 9 4 23 1
30 -5 11 -10 11 -9 1 4 -11 15 -6 21 35 44 26 14 56 24 66 21 12 -3 17 0 14 8
-4 9 37 38 111 80 64 37 120 67 125 67 4 -1 16 8 27 19 12 12 25 18 30 15 6
-4 10 -2 10 3 0 13 96 63 105 54 5 -4 6 -2 3 3 -6 10 409 255 430 255 6 0 12
4 14 8 3 8 283 172 293 172 4 0 18 9 32 20 14 11 29 17 34 14 5 -3 9 -1 9 3 0
5 23 22 50 38 28 16 50 32 50 35 0 3 -30 23 -67 44 -38 22 -71 44 -75 50 -4 6
-8 8 -8 4 0 -4 -82 41 -182 99 -101 58 -205 118 -233 134 l-50 28 -215 -30
c-118 -16 -225 -28 -237 -26 -12 2 -21 1 -18 -2 5 -9 -702 -104 -721 -97 -8 3
-13 2 -10 -3 5 -8 -85 -23 -92 -16 -2 2 64 168 147 369 83 202 151 370 151
374 0 6 -274 167 -560 329 l-57 32 -1043 -602z"/>
<path d="M1515 5907 c-170 -45 -240 -159 -157 -256 17 -19 631 -379 1702 -997
921 -532 1700 -978 1730 -993 73 -34 236 -42 326 -16 84 24 3424 1951 3477
2005 31 33 37 46 37 81 0 83 -64 143 -190 175 -82 21 -224 15 -291 -12 -25
-11 -358 -199 -740 -419 -381 -220 -697 -399 -701 -398 -4 2 -8 -1 -8 -5 0
-13 -59 -43 -72 -36 -6 4 -8 3 -5 -3 8 -12 -101 -75 -115 -66 -6 3 -9 2 -5 -3
3 -5 -146 -97 -331 -203 -186 -107 -519 -300 -742 -429 -222 -128 -416 -240
-430 -247 -24 -12 -100 30 -1596 894 -863 499 -1588 912 -1610 920 -57 18
-219 23 -279 8z"/>
<path d="M6610 5700 c0 -5 5 -10 11 -10 5 0 7 5 4 10 -3 6 -8 10 -11 10 -2 0
-4 -4 -4 -10z"/>
<path d="M6310 5600 c0 -5 5 -10 11 -10 5 0 7 5 4 10 -3 6 -8 10 -11 10 -2 0
-4 -4 -4 -10z"/>
<path d="M6425 5600 c3 -5 8 -10 11 -10 2 0 4 5 4 10 0 6 -5 10 -11 10 -5 0
-7 -4 -4 -10z"/>
<path d="M6137 5529 c7 -7 15 -10 18 -7 3 3 -2 9 -12 12 -14 6 -15 5 -6 -5z"/>
<path d="M6186 5433 c-6 -14 -5 -15 5 -6 7 7 10 15 7 18 -3 3 -9 -2 -12 -12z"/>
<path d="M5746 5285 c-9 -26 -7 -32 5 -12 6 10 9 21 6 23 -2 3 -7 -2 -11 -11z"/>
<path d="M5701 5254 c0 -11 3 -14 6 -6 3 7 2 16 -1 19 -3 4 -6 -2 -5 -13z"/>
<path d="M5610 5229 c0 -5 5 -7 10 -4 6 3 10 8 10 11 0 2 -4 4 -10 4 -5 0 -10
-5 -10 -11z"/>
<path d="M6100 5230 c-9 -6 -10 -10 -3 -10 6 0 15 5 18 10 8 12 4 12 -15 0z"/>
<path d="M5750 5181 c0 -6 4 -13 10 -16 6 -3 7 1 4 9 -7 18 -14 21 -14 7z"/>
<path d="M6315 5029 c-4 -6 -5 -12 -2 -15 2 -3 7 2 10 11 7 17 1 20 -8 4z"/>
<path d="M5445 4900 c3 -5 8 -10 11 -10 2 0 4 5 4 10 0 6 -5 10 -11 10 -5 0
-7 -4 -4 -10z"/>
<path d="M6077 4889 c7 -7 15 -10 18 -7 3 3 -2 9 -12 12 -14 6 -15 5 -6 -5z"/>
<path d="M1550 4865 c-119 -34 -180 -92 -180 -173 0 -36 6 -49 38 -82 49 -51
3378 -1974 3467 -2002 81 -27 258 -22 325 9 45 20 3227 1853 3369 1941 60 36
77 53 93 88 42 96 -26 180 -177 220 -97 26 -247 13 -329 -28 -21 -11 -735
-422 -1587 -913 l-1548 -894 -1563 903 c-860 496 -1584 910 -1608 920 -62 26
-226 31 -300 11z"/>
<path d="M5772 4774 c10 -10 20 -16 22 -13 3 3 -5 11 -17 18 -21 13 -21 12 -5
-5z"/>
</g>
</svg>
