<svg width="53" height="34" viewBox="0 0 53 34" fill="none" xmlns="http://www.w3.org/2000/svg">
<path d="M15.2817 0.75C16.7955 0.75 18.1943 0.864925 19.4781 1.2097C20.7587 1.43955 21.8127 1.91895 22.7486 2.49357C23.6877 3.07148 24.3805 3.89237 24.8533 4.9464C25.313 5.99714 25.5626 7.28102 25.5626 8.67982C25.5626 10.3085 25.2145 11.7073 24.3936 12.758C23.6877 13.8088 22.5351 14.7479 21.1199 15.4407C23.1098 16.0186 24.6235 17.0693 25.5462 18.4681C26.4688 19.8669 27.0599 21.6105 27.0599 23.6004C27.0599 25.229 26.7151 26.6278 26.1241 27.7968C25.5345 28.9733 24.6497 29.9769 23.5563 30.7093C22.5056 31.4152 21.2217 31.9899 19.8229 32.3379C18.4527 32.6998 17.0435 32.8938 15.6265 32.9158L0 32.9388V0.75H15.2817ZM14.3459 13.812C15.6265 13.812 16.6772 13.4673 17.4883 12.8762C18.296 12.2852 18.654 11.2443 18.654 9.96369C18.654 9.25444 18.539 8.56489 18.3092 8.10191C18.0604 7.63267 17.6994 7.23223 17.2584 6.93624C16.7821 6.67651 16.2729 6.48213 15.7447 6.35834C15.1668 6.24341 14.5758 6.24341 13.8829 6.24341H7.12534V13.8285C7.12534 13.812 14.3492 13.812 14.3492 13.812H14.3459ZM14.6907 27.58C15.3967 27.58 16.0895 27.4651 16.6805 27.3502C17.2584 27.2353 17.8495 27.0021 18.3092 26.6409C18.7689 26.2797 19.1301 25.935 19.4781 25.3603C19.708 24.7824 19.9378 24.0765 19.9378 23.2556C19.9378 21.6269 19.4781 20.458 18.539 19.6371C17.6032 18.9311 16.3193 18.5863 14.8056 18.5863H7.12534V27.5636H14.694V27.58H14.6907ZM37.2094 27.4651C38.1485 28.4009 39.544 28.8639 41.4058 28.8639C42.6864 28.8639 43.8553 28.5159 44.7944 27.9248C45.7303 27.2188 46.3049 26.526 46.5347 25.8233H52.2481C51.309 28.6176 49.9102 30.6075 48.0517 31.8914C46.1932 33.057 43.9703 33.7499 41.2876 33.7499C39.5721 33.7575 37.8708 33.4399 36.2736 32.814C34.8361 32.2797 33.5534 31.3975 32.5402 30.2463C31.4594 29.1728 30.6569 27.8518 30.2023 26.398C29.6276 24.8842 29.3814 23.2556 29.3814 21.3807C29.3814 19.6371 29.6112 17.992 30.2023 16.4783C30.7933 14.9679 31.6011 13.6807 32.6551 12.515C33.7058 11.4643 34.9897 10.5252 36.3885 9.94728C37.9482 9.32628 39.6121 9.00866 41.2909 9.01146C43.2807 9.01146 45.0243 9.35623 46.538 10.1771C48.0485 10.998 49.2207 11.924 50.1565 13.3228C51.0923 14.6034 51.7852 16.1171 52.2613 17.749C52.4911 19.3777 52.6061 21.0195 52.4911 22.8813H35.5808C35.5808 24.7857 36.2703 26.526 37.2094 27.4651V27.4651ZM44.5646 15.2108C43.7437 14.3899 42.4565 13.927 40.9428 13.927C39.8921 13.927 39.0843 14.1568 38.3783 14.5049C37.6724 14.8496 37.2094 15.3258 36.7497 15.7855C36.3205 16.2361 36.0348 16.8041 35.9288 17.4174C35.8106 17.992 35.699 18.4681 35.699 18.9278H46.1932C45.9634 17.2007 45.3724 16.0317 44.5613 15.2108H44.5646ZM34.2969 2.96969H47.3589V6.11207H34.2969V2.96969V2.96969Z" fill="black"/>
</svg>
