<svg width="33" height="33" viewBox="0 0 33 33" fill="none" xmlns="http://www.w3.org/2000/svg">
<g clip-path="url(#clip0_4_20)">
<path d="M33 16.6011C33 7.43119 25.6121 -0.0020628 16.5 -0.0020628C7.38375 -2.9779e-07 -0.00411987 7.43119 -0.00411987 16.6031C-0.00411987 24.8882 6.03075 31.7563 13.9178 33.0021V21.4005H9.73088V16.6031H13.9219V12.9422C13.9219 8.78212 16.3866 6.4845 20.1548 6.4845C21.9615 6.4845 23.8487 6.80831 23.8487 6.80831V10.8921H21.7676C19.7196 10.8921 19.0802 12.1729 19.0802 13.4867V16.6011H23.6548L22.9247 21.3984H19.0781V33C26.9651 31.7542 33 24.8861 33 16.6011Z" fill="black"/>
</g>
<defs>
<clipPath id="clip0_4_20">
<rect width="33" height="33" fill="white"/>
</clipPath>
</defs>
</svg>
