<svg width="18" height="14" viewBox="0 0 18 14" fill="none" xmlns="http://www.w3.org/2000/svg">
<path d="M0.05625 2.24938C0.16967 1.7524 0.448487 1.30867 0.847037 0.990847C1.24559 0.673029 1.74025 0.499966 2.25 0.5H15.75C16.2598 0.499966 16.7544 0.673029 17.153 0.990847C17.5515 1.30867 17.8303 1.7524 17.9437 2.24938L9 7.71575L0.05625 2.24938ZM0 3.53413V11.5261L6.52837 7.52338L0 3.53413ZM7.60613 8.18375L0.214875 12.7141C0.397492 13.0992 0.685717 13.4245 1.046 13.6521C1.40629 13.8798 1.82382 14.0004 2.25 14H15.75C16.1761 14.0001 16.5935 13.8792 16.9536 13.6514C17.3136 13.4235 17.6016 13.0981 17.784 12.713L10.3927 8.18263L9 9.03426L7.60613 8.18263V8.18375ZM11.4716 7.5245L18 11.5261V3.53413L11.4716 7.52338V7.5245Z" fill="black"/>
</svg>
